<?xml version="1.0" encoding="UTF-8" standalone="no"?>
<!-- Created with Inkscape (http://www.inkscape.org/) -->

<svg
   version="1.1"
   id="svg1"
   width="100"
   height="80.273643"
   viewBox="0 0 100 80.273643"
   xmlns="http://www.w3.org/2000/svg"
   xmlns:svg="http://www.w3.org/2000/svg">
  <defs
     id="defs1" />
  <g
     id="g1"
     style="display:inline"
     transform="matrix(0.08482414,0,0,0.08482414,-0.92755296,-2.3153421)">
    <path
       style="fill:#ffffff"
       d="m 246.5,973.37297 c -48.0159,-5.2331 -84.94846,-29.89689 -105.04266,-70.14814 -21.59624,-43.26003 -19.03185,-91.0067 6.98984,-130.14467 20.78764,-31.26568 57.94706,-55.96584 100.8305,-67.02283 15.34002,-3.95524 25.89834,-5.30483 41.22232,-5.26915 21.39165,0.0498 38.97947,4.15745 56.23133,13.13285 9.49747,4.94113 22.24352,14.87159 28.14796,21.93011 l 4.37929,5.23526 -29.80986,30.2068 c -16.39542,16.61374 -30.8302,31.29818 -32.0773,32.63208 l -2.26744,2.42529 -4.30199,-3.95976 c -10.07248,-9.2712 -19.18727,-13.93533 -29.61262,-15.15307 -9.25942,-1.08156 -17.10037,0.14037 -24.95476,3.88892 -16.19459,7.72896 -25.30848,23.69145 -23.90787,41.87334 1.65859,21.53093 14.01111,42.61031 29.41284,50.19256 5.61943,2.76644 7.87972,3.28583 15.80842,3.6326 10.87036,0.47543 18.72881,-1.63656 27.12269,-7.28933 11.51776,-7.75651 17.10594,-18.22532 20.93667,-39.22245 0.33789,-1.85203 0.89575,-2.10922 3.64578,-1.68079 1.78578,0.27821 22.03319,2.87352 44.99427,5.76736 22.96107,2.89385 42.01134,5.52546 42.33391,5.84804 0.95026,0.95026 -1.47157,18.62317 -3.666,26.75201 -1.11357,4.125 -4.18057,12 -6.81556,17.5 -18.57474,38.77104 -61.58908,67.0655 -117.10874,77.03313 -8.47263,1.52112 -34.91147,2.66591 -42.49102,1.83984 z M 414.67123,740.90498 c -31.25582,-90.79443 -56.68082,-165.20702 -56.5,-165.36131 0.64086,-0.54684 100.13627,-34.56847 100.33347,-34.3082 1.4079,1.85828 113.42363,330.2033 112.82483,330.71672 -0.97065,0.83225 -97.45674,34.05123 -98.87277,34.04069 -0.52622,-0.004 -26.52971,-74.29348 -57.78553,-165.0879 z M 671.9095,830.89974 C 646.39923,828.43029 623.33179,814.64877 605.96239,791.5 600.29721,783.94983 592.58418,769.92832 588.45163,759.6672 583.86308,748.27385 536.78052,611.88615 537.26775,611.39892 537.72592,610.94075 636.03724,577 636.90618,577 c 0.36109,0 3.87163,9.3375 7.80119,20.75 3.92957,11.4125 13.501,39.2 21.26986,61.75 7.76885,22.55 15.94886,44.71112 18.1778,49.24692 7.57455,15.41392 17.06244,22.57738 29.82163,22.51563 13.14527,-0.0636 26.00247,-8.13192 31.17093,-19.56076 2.08527,-4.61108 2.34373,-6.62127 2.276,-17.70179 -0.0903,-14.77015 2.02837,-7.46699 -24.36857,-84 -14.8904,-43.17194 -18.85114,-55.68846 -17.83094,-56.34842 2.62759,-1.69977 98.29587,-34.32213 98.96198,-33.74549 1.39713,1.20948 83.84483,242.46034 83.09375,243.14128 -0.91267,0.82744 -94.46674,33.1245 -94.7893,32.72349 -0.11983,-0.14897 -1.63633,-4.54586 -3.36999,-9.77086 -1.73366,-5.225 -3.50393,-10.0542 -3.93393,-10.73155 -0.51704,-0.81446 -2.00352,0.8789 -4.38914,5 -6.63491,11.46165 -19.1071,24.09082 -32.07769,32.48146 -21.03185,13.60543 -50.88464,20.65948 -76.81026,18.14983 z M 938.21466,732.25 C 936.03593,725.7875 910.57134,651.79005 881.62667,567.81122 852.682,483.8324 829,414.70953 829,414.20486 c 0,-0.97323 98.91059,-35.38051 99.91226,-34.75573 0.32326,0.20163 8.46274,23.35122 18.08774,51.44353 9.625,28.09231 17.725,51.07484 18,51.07229 0.275,-0.003 1.85,-2.32561 3.5,-5.16235 7.06382,-12.14438 23.35535,-25.0903 41.2991,-32.81799 57.0374,-24.56378 118.9447,-6.71674 152.6794,44.01539 11.6893,17.57898 21.6329,43.46101 25.5487,66.5 5.7656,33.92244 -2.3433,68.96752 -22.0886,95.46351 -10.183,13.66445 -27.0526,28.00254 -41.6292,35.38216 -29.9062,15.14044 -64.8691,18.86975 -86.0399,9.17742 -3.0657,-1.40353 -5.7795,-2.34645 -6.0305,-2.09538 -0.2511,0.25107 0.9374,4.6126 2.641,9.69229 1.7036,5.07969 2.9901,9.32521 2.8588,9.43448 C 1037.2138,711.99132 943.73332,744 942.98251,744 c -0.44358,0 -2.58912,-5.2875 -4.76785,-11.75 z M 1057.3437,622.03266 c 10.755,-4.13451 20.6291,-14.54306 23.7343,-25.01894 2.2635,-7.63635 2.2894,-19.11762 0.063,-28.04238 -7.6114,-30.51549 -28.5858,-48.48866 -51.3573,-44.00863 -12.5348,2.46608 -23.679,9.88286 -29.3246,19.51642 -2.87972,4.91381 -5.42705,15.22989 -5.43761,22.02087 -0.0121,7.77605 3.61629,21.11603 8.43181,31 6.4559,13.25111 16.069,22.26844 27.8324,26.10756 6.0823,1.98501 18.7962,1.2166 26.0577,-1.5749 z M 98.088159,635.61635 C 97.669767,634.45236 92.716413,620.11709 87.080706,603.7602 L 76.833964,574.02039 110.93487,493.36142 c 18.7555,-44.36244 33.94045,-80.81943 33.74434,-81.01554 -0.19611,-0.19611 -23.91784,7.75378 -52.714948,17.66642 -28.797111,9.91265 -52.796841,17.87684 -53.332733,17.69821 -1.222831,-0.40761 -28.567063,-79.63232 -27.675169,-80.18354 1.028017,-0.63535 245.03931,-84.5279 245.83374,-84.51912 0.39045,0.004 5.59582,14.19423 11.56749,31.53314 10.26983,29.81873 10.78671,31.69944 9.54824,34.74216 -0.72015,1.76927 -16.04308,38.09185 -34.05097,80.71685 -18.00789,42.625 -32.40846,77.61955 -32.00126,77.76566 0.40719,0.14611 26.2415,-8.51639 57.40957,-19.25 C 300.43124,477.78205 326.29565,469 326.73963,469 c 0.81011,0 28.71413,79.91877 28.09196,80.45701 -0.18238,0.15777 -57.85309,20.08434 -128.15715,44.28127 -122.64818,42.21249 -127.856381,43.9087 -128.586281,41.87807 z M 394.73539,527.81405 c -1.36862,-4.02273 -22.14681,-64.39872 -46.17375,-134.16886 -24.02694,-69.77015 -43.48153,-127.05863 -43.23243,-127.30773 0.5504,-0.5504 110.04224,-38.30793 110.28858,-38.03229 0.65961,0.73808 92.27577,268.1346 91.97284,268.43754 -0.21075,0.21074 -24.39236,8.64983 -53.73691,18.75351 -29.34454,10.10369 -54.09087,18.65419 -54.99182,19.00111 -1.31297,0.50557 -2.13201,-0.82095 -4.12651,-6.68328 z m 146.83322,-78.22898 c -6.17047,-18.0197 -10.50814,-32.1974 -10.17285,-33.25 0.3215,-1.00929 15.62502,-37.38507 34.00784,-80.83507 18.38281,-43.45 33.11338,-79.11629 32.7346,-79.25841 -0.37877,-0.14213 -24.26391,7.86129 -53.07806,17.78537 -28.81416,9.92409 -52.73792,17.69037 -53.1639,17.25842 -0.82508,-0.83665 -28.04435,-79.48575 -27.63699,-79.85607 1.1371,-1.03369 245.35338,-84.4082 246.24354,-84.06661 0.6444,0.24728 5.96648,14.49104 11.82684,31.65281 l 10.6552,31.20322 -34.06918,80.48053 c -18.73806,44.2643 -33.87749,80.67224 -33.64318,80.90654 0.2343,0.23431 25.80635,-8.32076 56.82677,-19.01126 31.02042,-10.6905 56.99969,-19.58516 57.73172,-19.76591 0.93275,-0.23031 5.46496,11.63885 15.14842,39.67137 7.59961,22 13.52568,40.28688 13.16905,40.63752 C 807.42902,393.84482 554.49692,481 553.16367,481 c -0.46072,0 -5.6785,-14.13672 -11.59506,-31.41493 z m 298.47515,-70.77381 c -0.65702,-1.8212 -5.61426,-16.17497 -11.01608,-31.89729 l -9.82149,-28.58602 33.94144,-80.28036 c 18.6678,-44.1542 33.8089,-80.58684 33.64691,-80.96142 -0.162,-0.37458 -24.12122,7.53861 -53.24272,17.58487 -29.12151,10.04626 -53.04309,18.16761 -53.15908,18.04744 -1.26494,-1.31045 -27.40139,-80.08604 -26.76147,-80.65942 C 754.10907,111.63094 809.175,92.475442 876,69.491283 942.825,46.507124 997.99711,27.520924 998.60468,27.299727 c 1.57842,-0.574653 22.80022,61.980033 22.02792,64.930781 -0.3267,1.248221 -15.6374,37.819492 -34.0238,81.269492 -18.38637,43.45 -33.33797,79.09457 -33.22579,79.21016 0.11219,0.11559 26.27184,-8.77191 58.13259,-19.75 C 1043.3763,221.98207 1069.5067,213 1069.5831,213 c 0.8569,0 27.4744,80.31622 26.8122,80.90376 -0.4924,0.43695 -57.5953,20.28334 -126.8953,44.1031 -69.3,23.81976 -126.50887,43.49023 -127.13082,43.71215 -0.62195,0.22193 -1.66839,-1.08656 -2.32542,-2.90775 z M 313.34918,229.98522 c -18.5291,-2.53738 -35.72317,-14.80818 -43.83088,-31.28055 -8.95862,-18.20117 -8.29631,-35.89225 2.03535,-54.367 11.28011,-20.17071 39.64738,-35.50055 68.54357,-37.04135 29.26165,-1.56029 51.40363,12.57124 59.41038,37.9171 5.26245,16.65858 4.35573,29.30089 -3.20274,44.65566 -7.40922,15.05157 -18.14319,24.52557 -37.04719,32.69856 -14.7555,6.37942 -32.52441,9.2504 -45.90849,7.41758 z"
       id="path1" />
  </g>
</svg>
